<?xml version="1.0" standalone="no"?>
<!DOCTYPE svg PUBLIC "-//W3C//DTD SVG 1.1//EN"
"http://www.w3.org/Graphics/SVG/1.1/DTD/svg11.dtd">

<svg width="730" height="382" view_box="0 0 730 382"
xmlns="http://www.w3.org/2000/svg"
xmlns:link="http://www.w3.org/1999/xlink">\n\n<desc>Généré par Mocodo 2.3.7 le Tue, 17 Dec 2019 08:28:34</desc>

<rect id="frame" x="0" y="0" width="730" height="382" fill="#ffffff" stroke="none" stroke-width="0"/>

<!-- Association Supprime_Evenement -->
<line x1="427" y1="187" x2="275" y2="187" stroke="#d6604d" stroke-width="2"/>
<text x="356" y="204.0" fill="#4d4d4d" font-family="Verdana" font-size="12">0,1</text>
<line x1="104" y1="187" x2="275" y2="187" stroke="#d6604d" stroke-width="2"/>
<text x="159" y="204.0" fill="#4d4d4d" font-family="Verdana" font-size="12">0,n</text>
<line x1="275" y1="314" x2="275" y2="187" stroke="#d6604d" stroke-width="2"/>
<text x="280.0" y="247" fill="#4d4d4d" font-family="Verdana" font-size="12">0,n</text>
<g id="association-Supprime_Evenement">
	<path d="M 336 162 a 14 14 90 0 1 14 14 V 187 h -150 V 176 a 14 14 90 0 1 14 -14" fill="#f4a582" stroke="#f4a582" stroke-width="0"/>
	<path d="M 350 187.0 v 11 a 14 14 90 0 1 -14 14 H 214 a 14 14 90 0 1 -14 -14 V 187.0 H 150" fill="#fddbc7" stroke="#fddbc7" stroke-width="0"/>
	<rect x="200" y="162" width="150" height="50" fill="none" rx="14" stroke="#d6604d" stroke-width="2"/>
	<line x1="200" y1="187" x2="350" y2="187" stroke="#d6604d" stroke-width="1"/>
	<text x="207" y="179.7" fill="#000000" font-family="Verdana" font-size="12">Supprime_Evenement</text>
</g>

<!-- Association A_pour_theme -->
<line x1="427" y1="187" x2="427" y2="60" stroke="#d6604d" stroke-width="2"/>
<text x="401.0" y="103" fill="#4d4d4d" font-family="Verdana" font-size="12">1,1</text>
<line x1="275" y1="60" x2="427" y2="60" stroke="#d6604d" stroke-width="2"/>
<text x="306" y="77.0" fill="#4d4d4d" font-family="Verdana" font-size="12">0,n</text>
<g id="association-A_pour_theme">
	<path d="M 465 35 a 14 14 90 0 1 14 14 V 60 h -104 V 49 a 14 14 90 0 1 14 -14" fill="#f4a582" stroke="#f4a582" stroke-width="0"/>
	<path d="M 479 60.0 v 11 a 14 14 90 0 1 -14 14 H 389 a 14 14 90 0 1 -14 -14 V 60.0 H 104" fill="#fddbc7" stroke="#fddbc7" stroke-width="0"/>
	<rect x="375" y="35" width="104" height="50" fill="none" rx="14" stroke="#d6604d" stroke-width="2"/>
	<line x1="375" y1="60" x2="479" y2="60" stroke="#d6604d" stroke-width="1"/>
	<text x="382" y="52.7" fill="#000000" font-family="Verdana" font-size="12">A_pour_theme</text>
</g>

<!-- Association Cree_Evenement -->
<line x1="427" y1="187" x2="427" y2="314" stroke="#d6604d" stroke-width="2"/>
<text x="401.0" y="280" fill="#4d4d4d" font-family="Verdana" font-size="12">1,1</text>
<line x1="275" y1="314" x2="427" y2="314" stroke="#d6604d" stroke-width="2"/>
<text x="324" y="331.0" fill="#4d4d4d" font-family="Verdana" font-size="12">0,n</text>
<g id="association-Cree_Evenement">
	<path d="M 472 289 a 14 14 90 0 1 14 14 V 314 h -118 V 303 a 14 14 90 0 1 14 -14" fill="#f4a582" stroke="#f4a582" stroke-width="0"/>
	<path d="M 486 314.0 v 11 a 14 14 90 0 1 -14 14 H 382 a 14 14 90 0 1 -14 -14 V 314.0 H 118" fill="#fddbc7" stroke="#fddbc7" stroke-width="0"/>
	<rect x="368" y="289" width="118" height="50" fill="none" rx="14" stroke="#d6604d" stroke-width="2"/>
	<line x1="368" y1="314" x2="486" y2="314" stroke="#d6604d" stroke-width="1"/>
	<text x="375" y="306.7" fill="#000000" font-family="Verdana" font-size="12">Cree_Evenement</text>
</g>

<!-- Association Porte_Sur -->
<line x1="675" y1="60" x2="553" y2="60" stroke="#d6604d" stroke-width="2"/>
<text x="603" y="77.0" fill="#4d4d4d" font-family="Verdana" font-size="12">1,1</text>
<line x1="427" y1="187" x2="553" y2="60" stroke="#d6604d" stroke-width="2"/>
<text x="477" y="151.611382147" fill="#4d4d4d" font-family="Verdana" font-size="12">0,n</text>
<g id="association-Porte_Sur">
	<path d="M 577 35 a 14 14 90 0 1 14 14 V 60 h -76 V 49 a 14 14 90 0 1 14 -14" fill="#f4a582" stroke="#f4a582" stroke-width="0"/>
	<path d="M 591 60.0 v 11 a 14 14 90 0 1 -14 14 H 529 a 14 14 90 0 1 -14 -14 V 60.0 H 76" fill="#fddbc7" stroke="#fddbc7" stroke-width="0"/>
	<rect x="515" y="35" width="76" height="50" fill="none" rx="14" stroke="#d6604d" stroke-width="2"/>
	<line x1="515" y1="60" x2="591" y2="60" stroke="#d6604d" stroke-width="1"/>
	<text x="522" y="52.7" fill="#000000" font-family="Verdana" font-size="12">Porte_Sur</text>
</g>

<!-- Association Se_deroule_a -->
<line x1="427" y1="187" x2="553" y2="187" stroke="#d6604d" stroke-width="2"/>
<text x="477" y="204.0" fill="#4d4d4d" font-family="Verdana" font-size="12">1,1</text>
<line x1="675" y1="187" x2="553" y2="187" stroke="#d6604d" stroke-width="2"/>
<text x="608" y="204.0" fill="#4d4d4d" font-family="Verdana" font-size="12">0,n</text>
<g id="association-Se_deroule_a">
	<path d="M 588 162 a 14 14 90 0 1 14 14 V 187 h -98 V 176 a 14 14 90 0 1 14 -14" fill="#f4a582" stroke="#f4a582" stroke-width="0"/>
	<path d="M 602 187.0 v 11 a 14 14 90 0 1 -14 14 H 518 a 14 14 90 0 1 -14 -14 V 187.0 H 98" fill="#fddbc7" stroke="#fddbc7" stroke-width="0"/>
	<rect x="504" y="162" width="98" height="50" fill="none" rx="14" stroke="#d6604d" stroke-width="2"/>
	<line x1="504" y1="187" x2="602" y2="187" stroke="#d6604d" stroke-width="1"/>
	<text x="511" y="179.7" fill="#000000" font-family="Verdana" font-size="12">Se_deroule_a</text>
</g>

<!-- Association Cree/Supprime_Contributeur -->
<line x1="275" y1="314" x2="104" y2="314" stroke="#d6604d" stroke-width="2"/>
<text x="205" y="331.0" fill="#4d4d4d" font-family="Verdana" font-size="12">0,1</text>
<line x1="104" y1="187" x2="104" y2="314" stroke="#d6604d" stroke-width="2"/>
<text x="109.0" y="255" fill="#4d4d4d" font-family="Verdana" font-size="12">0,n</text>
<g id="association-Cree/Supprime_Contributeur">
	<path d="M 185 289 a 14 14 90 0 1 14 14 V 314 h -190 V 303 a 14 14 90 0 1 14 -14" fill="#f4a582" stroke="#f4a582" stroke-width="0"/>
	<path d="M 199 314.0 v 11 a 14 14 90 0 1 -14 14 H 23 a 14 14 90 0 1 -14 -14 V 314.0 H 190" fill="#fddbc7" stroke="#fddbc7" stroke-width="0"/>
	<rect x="9" y="289" width="190" height="50" fill="none" rx="14" stroke="#d6604d" stroke-width="2"/>
	<line x1="9" y1="314" x2="199" y2="314" stroke="#d6604d" stroke-width="1"/>
	<text x="16" y="306.7" fill="#000000" font-family="Verdana" font-size="12">Cree/Supprime_Contributeur</text>
</g>

<!-- Association S'inscrit -->
<line x1="427" y1="187" x2="553" y2="314" stroke="#d6604d" stroke-width="2"/>
<text x="477" y="231.388617853" fill="#4d4d4d" font-family="Verdana" font-size="12">0,n</text>
<line x1="675" y1="314" x2="553" y2="314" stroke="#d6604d" stroke-width="2"/>
<text x="615" y="331.0" fill="#4d4d4d" font-family="Verdana" font-size="12">0,n</text>
<g id="association-S'inscrit">
	<path d="M 571 289 a 14 14 90 0 1 14 14 V 314 h -64 V 303 a 14 14 90 0 1 14 -14" fill="#f4a582" stroke="#f4a582" stroke-width="0"/>
	<path d="M 585 314.0 v 11 a 14 14 90 0 1 -14 14 H 535 a 14 14 90 0 1 -14 -14 V 314.0 H 64" fill="#fddbc7" stroke="#fddbc7" stroke-width="0"/>
	<rect x="521" y="289" width="64" height="50" fill="none" rx="14" stroke="#d6604d" stroke-width="2"/>
	<line x1="521" y1="314" x2="585" y2="314" stroke="#d6604d" stroke-width="1"/>
	<text x="528" y="306.7" fill="#000000" font-family="Verdana" font-size="12">S'inscrit</text>
</g>

<!-- Association Cree/Supprime_Theme -->
<line x1="275" y1="60" x2="104" y2="60" stroke="#d6604d" stroke-width="2"/>
<text x="223" y="77.0" fill="#4d4d4d" font-family="Verdana" font-size="12">1,1</text>
<line x1="104" y1="187" x2="104" y2="60" stroke="#d6604d" stroke-width="2"/>
<text x="109.0" y="128" fill="#4d4d4d" font-family="Verdana" font-size="12">0,n</text>
<g id="association-Cree/Supprime_Theme">
	<path d="M 168 35 a 14 14 90 0 1 14 14 V 60 h -156 V 49 a 14 14 90 0 1 14 -14" fill="#f4a582" stroke="#f4a582" stroke-width="0"/>
	<path d="M 182 60.0 v 11 a 14 14 90 0 1 -14 14 H 40 a 14 14 90 0 1 -14 -14 V 60.0 H 156" fill="#fddbc7" stroke="#fddbc7" stroke-width="0"/>
	<rect x="26" y="35" width="156" height="50" fill="none" rx="14" stroke="#d6604d" stroke-width="2"/>
	<line x1="26" y1="60" x2="182" y2="60" stroke="#d6604d" stroke-width="1"/>
	<text x="33" y="52.7" fill="#000000" font-family="Verdana" font-size="12">Cree/Supprime_Theme</text>
</g>

<!-- Entity Administrateur -->
<g id="entity-Administrateur">
	<g id="frame-Administrateur">
		<rect x="54" y="136" width="100" height="25" fill="#bababa" stroke="#bababa" stroke-width="0"/>
		<rect x="54" y="161.0" width="100" height="77" fill="#e0e0e0" stroke="#e0e0e0" stroke-width="0"/>
		<rect x="54" y="136" width="100" height="102" fill="none" stroke="#878787" stroke-width="2"/>
		<line x1="54" y1="161" x2="154" y2="161" stroke="#878787" stroke-width="1"/>
	</g>
	<text x="59" y="153.7" fill="#000000" font-family="Verdana" font-size="12">Administrateur</text>
	<text x="59" y="178.7" fill="#000000" font-family="Verdana" font-size="12">ID_Admin</text>
	<line x1="59" y1="181" x2="120" y2="181" stroke="#000000" stroke-width="1"/>
	<text x="59" y="195.8" fill="#000000" font-family="Verdana" font-size="12">Email</text>
	<text x="59" y="212.8" fill="#000000" font-family="Verdana" font-size="12">Login</text>
	<text x="59" y="229.8" fill="#000000" font-family="Verdana" font-size="12">Password</text>
</g>

<!-- Entity Commentaire -->
<g id="entity-Commentaire">
	<g id="frame-Commentaire">
		<rect x="629" y="9" width="92" height="25" fill="#bababa" stroke="#bababa" stroke-width="0"/>
		<rect x="629" y="34.0" width="92" height="77" fill="#e0e0e0" stroke="#e0e0e0" stroke-width="0"/>
		<rect x="629" y="9" width="92" height="102" fill="none" stroke="#878787" stroke-width="2"/>
		<line x1="629" y1="34" x2="721" y2="34" stroke="#878787" stroke-width="1"/>
	</g>
	<text x="634" y="26.7" fill="#000000" font-family="Verdana" font-size="12">Commentaire</text>
	<text x="634" y="51.7" fill="#000000" font-family="Verdana" font-size="12">ID_Com</text>
	<line x1="634" y1="54" x2="684" y2="54" stroke="#000000" stroke-width="1"/>
	<text x="634" y="68.8" fill="#000000" font-family="Verdana" font-size="12">Login</text>
	<text x="634" y="85.8" fill="#000000" font-family="Verdana" font-size="12">Commentaire</text>
	<text x="634" y="102.8" fill="#000000" font-family="Verdana" font-size="12">Note</text>
</g>

<!-- Entity Evenement -->
<g id="entity-Evenement">
	<g id="frame-Evenement">
		<rect x="382" y="111" width="90" height="25" fill="#bababa" stroke="#bababa" stroke-width="0"/>
		<rect x="382" y="136.0" width="90" height="127" fill="#e0e0e0" stroke="#e0e0e0" stroke-width="0"/>
		<rect x="382" y="111" width="90" height="152" fill="none" stroke="#878787" stroke-width="2"/>
		<line x1="382" y1="136" x2="472" y2="136" stroke="#878787" stroke-width="1"/>
	</g>
	<text x="392" y="128.7" fill="#000000" font-family="Verdana" font-size="12">Evenement</text>
	<text x="387" y="153.7" fill="#000000" font-family="Verdana" font-size="12">ID_Event</text>
	<line x1="387" y1="156" x2="444" y2="156" stroke="#000000" stroke-width="1"/>
	<text x="387" y="170.7" fill="#000000" font-family="Verdana" font-size="12">Date</text>
	<text x="387" y="187.8" fill="#000000" font-family="Verdana" font-size="12">Duree</text>
	<text x="387" y="204.8" fill="#000000" font-family="Verdana" font-size="12">EffectifMax</text>
	<text x="387" y="221.8" fill="#000000" font-family="Verdana" font-size="12">Descriptif</text>
	<text x="387" y="238.8" fill="#000000" font-family="Verdana" font-size="12">EffectifActuel</text>
	<text x="387" y="255.8" fill="#000000" font-family="Verdana" font-size="12">Note</text>
</g>

<!-- Entity Localisation -->
<g id="entity-Localisation">
	<g id="frame-Localisation">
		<rect x="634" y="136" width="82" height="25" fill="#bababa" stroke="#bababa" stroke-width="0"/>
		<rect x="634" y="161.0" width="82" height="77" fill="#e0e0e0" stroke="#e0e0e0" stroke-width="0"/>
		<rect x="634" y="136" width="82" height="102" fill="none" stroke="#878787" stroke-width="2"/>
		<line x1="634" y1="161" x2="716" y2="161" stroke="#878787" stroke-width="1"/>
	</g>
	<text x="639" y="153.7" fill="#000000" font-family="Verdana" font-size="12">Localisation</text>
	<text x="639" y="178.7" fill="#000000" font-family="Verdana" font-size="12">ID_Loc</text>
	<line x1="639" y1="181" x2="682" y2="181" stroke="#000000" stroke-width="1"/>
	<text x="639" y="195.8" fill="#000000" font-family="Verdana" font-size="12">Adresse</text>
	<text x="639" y="212.8" fill="#000000" font-family="Verdana" font-size="12">Latitude</text>
	<text x="639" y="229.8" fill="#000000" font-family="Verdana" font-size="12">Longitude</text>
</g>

<!-- Entity Theme -->
<g id="entity-Theme">
	<g id="frame-Theme">
		<rect x="249" y="35" width="52" height="25" fill="#bababa" stroke="#bababa" stroke-width="0"/>
		<rect x="249" y="60.0" width="52" height="25" fill="#e0e0e0" stroke="#e0e0e0" stroke-width="0"/>
		<rect x="249" y="35" width="52" height="50" fill="none" stroke="#878787" stroke-width="2"/>
		<line x1="249" y1="60" x2="301" y2="60" stroke="#878787" stroke-width="1"/>
	</g>
	<text x="254" y="52.7" fill="#000000" font-family="Verdana" font-size="12">Theme</text>
	<text x="254" y="77.8" fill="#000000" font-family="Verdana" font-size="12">Nom</text>
	<line x1="254" y1="80" x2="283" y2="80" stroke="#000000" stroke-width="1"/>
</g>

<!-- Entity Visiteur -->
<g id="entity-Visiteur">
	<g id="frame-Visiteur">
		<rect x="641" y="263" width="68" height="25" fill="#bababa" stroke="#bababa" stroke-width="0"/>
		<rect x="641" y="288.0" width="68" height="77" fill="#e0e0e0" stroke="#e0e0e0" stroke-width="0"/>
		<rect x="641" y="263" width="68" height="102" fill="none" stroke="#878787" stroke-width="2"/>
		<line x1="641" y1="288" x2="709" y2="288" stroke="#878787" stroke-width="1"/>
	</g>
	<text x="651" y="280.7" fill="#000000" font-family="Verdana" font-size="12">Visiteur</text>
	<text x="646" y="305.7" fill="#000000" font-family="Verdana" font-size="12">ID_Vis</text>
	<line x1="646" y1="308" x2="687" y2="308" stroke="#000000" stroke-width="1"/>
	<text x="646" y="322.8" fill="#000000" font-family="Verdana" font-size="12">Email</text>
	<text x="646" y="339.8" fill="#000000" font-family="Verdana" font-size="12">Login</text>
	<text x="646" y="356.8" fill="#000000" font-family="Verdana" font-size="12">Password</text>
</g>

<!-- Entity Contributeur -->
<g id="entity-Contributeur">
	<g id="frame-Contributeur">
		<rect x="231" y="255" width="88" height="25" fill="#bababa" stroke="#bababa" stroke-width="0"/>
		<rect x="231" y="280.0" width="88" height="93" fill="#e0e0e0" stroke="#e0e0e0" stroke-width="0"/>
		<rect x="231" y="255" width="88" height="118" fill="none" stroke="#878787" stroke-width="2"/>
		<line x1="231" y1="280" x2="319" y2="280" stroke="#878787" stroke-width="1"/>
	</g>
	<text x="236" y="272.7" fill="#000000" font-family="Verdana" font-size="12">Contributeur</text>
	<text x="236" y="297.7" fill="#000000" font-family="Verdana" font-size="12">ID_Contrib</text>
	<line x1="236" y1="300" x2="303" y2="300" stroke="#000000" stroke-width="1"/>
	<text x="236" y="314.8" fill="#000000" font-family="Verdana" font-size="12">Email</text>
	<text x="236" y="331.8" fill="#000000" font-family="Verdana" font-size="12">Login</text>
	<text x="236" y="348.8" fill="#000000" font-family="Verdana" font-size="12">Password</text>
	<text x="236" y="365.8" fill="#000000" font-family="Verdana" font-size="12">Attente</text>
</g>
</svg>